<svg xmlns="http://www.w3.org/2000/svg" viewBox="0 0 176.31 35.47"><defs><style>.cls-1{fill:#4a8b71;}</style></defs><g id="Layer_2" data-name="Layer 2"><g id="Layer_1-2" data-name="Layer 1"><path class="cls-1" d="M52.18,21.86,44.65,10.1V21.86H41.43V5.28h4l6.9,11v-11h3.22V21.86Z"/><path class="cls-1" d="M69.37,18.57a5.18,5.18,0,0,1-5.24,3.64,5.83,5.83,0,0,1-5.94-6.15,5.78,5.78,0,0,1,5.66-6c3.56,0,5.68,2.27,5.68,6,0,.44,0,.91,0,1H61.26a2.8,2.8,0,0,0,2.9,2.62,2.55,2.55,0,0,0,2.62-1.76Zm-2.9-3.77a2.32,2.32,0,0,0-2.57-2.27,2.49,2.49,0,0,0-2.57,2.27Z"/><path class="cls-1" d="M81.6,10.36l2.48,7.41,2.13-7.41h3.08l-3.6,11.5H82.58L79.89,14l-2.64,7.85H74.09l-3.67-11.5H73.7l2.13,7.39,2.5-7.39Z"/><path class="cls-1" d="M109.64,21.86,109.43,20a5.73,5.73,0,0,1-4.89,2.24c-4.47,0-8.28-3.27-8.28-8.63a8.34,8.34,0,0,1,8.49-8.65c4.35,0,6.76,2.55,7.58,5.1l-3.09,1.1A4.43,4.43,0,0,0,104.75,8c-2.5,0-5.21,1.71-5.21,5.63,0,3.75,2.45,5.69,5.23,5.69,3.07,0,4.26-2.06,4.45-3.23H104V13.23h8.28v8.63Z"/><path class="cls-1" d="M122.29,13.44a4.71,4.71,0,0,0-.94-.09c-1.59,0-3,.77-3,3.25v5.26h-3.11V10.36h3v1.71a3.43,3.43,0,0,1,3.27-1.81c.26,0,.5,0,.73.05Z"/><path class="cls-1" d="M135.57,16.11a6,6,0,1,1-12.06,0,6,6,0,1,1,12.06,0Zm-3.11,0a2.94,2.94,0,1,0-5.84,0,2.94,2.94,0,1,0,5.84,0Z"/><path class="cls-1" d="M147.52,10.36,150,17.77l2.13-7.41h3.08l-3.6,11.5H148.5L145.81,14l-2.64,7.85H140l-3.67-11.5h3.27l2.13,7.39,2.5-7.39Z"/><path class="cls-1" d="M161.41,10.36h2.32v2.76h-2.32v4.81c0,1,.47,1.34,1.36,1.34a4.32,4.32,0,0,0,1-.1v2.58A4.77,4.77,0,0,1,162,22a3.33,3.33,0,0,1-3.64-3.56V13.12h-2.08V10.36h.58a1.66,1.66,0,0,0,1.78-1.83V6.92h2.8Z"/><path class="cls-1" d="M168.92,21.86h-3.11V4.93h3.11v6.39A4.11,4.11,0,0,1,172,10.05c2.92,0,4.28,2,4.28,4.56v7.25H173.2V15.15a2,2,0,0,0-2.13-2.29,2.15,2.15,0,0,0-2.15,2.24Z"/><path class="cls-1" d="M69.42,26h1L69,31.22H68l-1.21-3.76-1.2,3.76H64.47L63,26H64.1l1,3.63L66.23,26h1.06l1.18,3.64Z"/><path class="cls-1" d="M74.65,31.22V26H78v1H75.68v1.21h2.06V29H75.68v1.22H78v1Z"/><path class="cls-1" d="M84.38,26A1.42,1.42,0,0,1,86,27.37a1.18,1.18,0,0,1-.76,1.13,1.25,1.25,0,0,1,.93,1.25,1.48,1.48,0,0,1-1.63,1.47h-2V26Zm-.16,2.18a.66.66,0,0,0,.75-.67c0-.4-.26-.65-.76-.65h-.72v1.32Zm.1,2.24c.5,0,.8-.26.8-.69a.69.69,0,0,0-.78-.71h-.85v1.4Z"/><path class="cls-1" d="M98.47,27.49a.9.9,0,0,0-1-.75.75.75,0,0,0-.83.67.62.62,0,0,0,.57.6l.74.14a1.6,1.6,0,0,1,1.47,1.55,1.73,1.73,0,0,1-1.9,1.63,1.92,1.92,0,0,1-2.1-1.65l1-.25a1.07,1.07,0,0,0,1.16,1c.55,0,.85-.28.85-.65s-.23-.54-.64-.62L97.05,29a1.55,1.55,0,0,1-1.39-1.51,1.92,1.92,0,0,1,3.73-.29Z"/><path class="cls-1" d="M103.83,31.22V26h3.3v1h-2.28v1.21h2.07V29h-2.07v1.22h2.28v1Z"/><path class="cls-1" d="M113.22,29.19h-.53v2h-1V26h2.06a1.58,1.58,0,0,1,1.68,1.62,1.49,1.49,0,0,1-1.12,1.49l1.13,2.16h-1.14Zm.3-.88a.74.74,0,1,0,0-1.47h-.83v1.47Z"/><path class="cls-1" d="M123.1,26h1.09l-2,5.27h-1l-2-5.27h1.12l1.38,3.92Z"/><path class="cls-1" d="M128.36,31.22V26h1v5.27Z"/><path class="cls-1" d="M133.79,28.59a2.66,2.66,0,0,1,2.69-2.75,2.31,2.31,0,0,1,2.41,1.74l-1,.31a1.39,1.39,0,0,0-1.45-1.07,1.76,1.76,0,0,0,0,3.51A1.47,1.47,0,0,0,138,29.25l1,.29a2.4,2.4,0,0,1-2.44,1.79A2.63,2.63,0,0,1,133.79,28.59Z"/><path class="cls-1" d="M143.28,31.22V26h3.3v1h-2.27v1.21h2.06V29h-2.06v1.22h2.27v1Z"/><path class="cls-1" d="M153.73,27.49a.9.9,0,0,0-1-.75.75.75,0,0,0-.83.67c0,.29.19.52.58.6l.73.14a1.61,1.61,0,0,1,1.48,1.55,1.74,1.74,0,0,1-1.91,1.63,1.92,1.92,0,0,1-2.1-1.65l.95-.25a1.07,1.07,0,0,0,1.16,1c.55,0,.85-.28.85-.65s-.23-.54-.64-.62l-.73-.15a1.55,1.55,0,0,1-1.39-1.51,1.92,1.92,0,0,1,3.73-.29Z"/><path class="cls-1" d="M6.16,20a18.18,18.18,0,0,1-2.23-1.17.9.9,0,0,0-1.36.87,16,16,0,0,0,.71,3,15.31,15.31,0,0,0,4.05,6.2,3.59,3.59,0,0,0,4.88,0,13.09,13.09,0,0,1,8.63-3.78c1.29-.12,6.18-.15,7,3.95a4.44,4.44,0,0,1-2.46,4.65,17.8,17.8,0,0,1-16.8-.8,17.84,17.84,0,0,1-6.91-7.66.93.93,0,0,1-.05-.1,19.44,19.44,0,0,1,0-6.93A14.48,14.48,0,0,1,7,9.55,21.26,21.26,0,0,1,16.77,5.7a44.49,44.49,0,0,1,10.76-.13,39,39,0,0,0-10.84-.49,24.78,24.78,0,0,0-5.36,1.16,18.72,18.72,0,0,0-4.9,2.54,15.39,15.39,0,0,0-3.81,4.07A14.31,14.31,0,0,0,.58,18a16,16,0,0,0-.26,3.08A18,18,0,0,1,0,17.74a16.9,16.9,0,0,1,.12-2,17.74,17.74,0,0,1,30.7-10,17.56,17.56,0,0,1-.63,3.1,17.8,17.8,0,0,1-8.8,10.62,17.61,17.61,0,0,1-8.19,2A17.76,17.76,0,0,1,6.16,20Z"/></g></g></svg>