<svg xmlns="http://www.w3.org/2000/svg" width="1922" height="331" viewBox="0 0 1922 331" fill="none">
<g opacity="0.2">
<path d="M791.664 0C791.664 20.6847 678.664 20.6847 678.664 41.3731C678.664 62.0616 791.664 62.0616 791.664 82.7463C791.664 103.431 678.664 103.435 678.664 124.123C678.664 144.812 791.664 144.808 791.664 165.496C791.664 186.185 678.664 186.185 678.664 206.869C678.664 227.554 791.664 227.558 791.664 248.246C791.664 268.935 678.664 268.935 678.664 289.623C678.664 310.312 791.664 310.312 791.664 331" stroke="#CDB89A" stroke-miterlimit="10"/>
<path d="M452.836 0C452.836 20.6847 339.836 20.6847 339.836 41.3731C339.836 62.0616 452.836 62.0616 452.836 82.7463C452.836 103.431 339.836 103.435 339.836 124.123C339.836 144.812 452.836 144.808 452.836 165.496C452.836 186.185 339.836 186.185 339.836 206.869C339.836 227.554 452.836 227.558 452.836 248.246C452.836 268.935 339.836 268.935 339.836 289.623C339.836 310.312 452.836 310.312 452.836 331" stroke="#CDB89A" stroke-miterlimit="10"/>
<path d="M1130.5 0C1130.5 20.6847 1017.5 20.6847 1017.5 41.3731C1017.5 62.0616 1130.5 62.0616 1130.5 82.7463C1130.5 103.431 1017.5 103.435 1017.5 124.123C1017.5 144.812 1130.5 144.808 1130.5 165.496C1130.5 186.185 1017.5 186.185 1017.5 206.869C1017.5 227.554 1130.5 227.558 1130.5 248.246C1130.5 268.935 1017.5 268.935 1017.5 289.623C1017.5 310.312 1130.5 310.312 1130.5 331" stroke="#CDB89A" stroke-miterlimit="10"/>
<path d="M1638.75 0C1638.75 20.6847 1525.75 20.6847 1525.75 41.3731C1525.75 62.0616 1638.75 62.0616 1638.75 82.7463C1638.75 103.431 1525.75 103.435 1525.75 124.123C1525.75 144.812 1638.75 144.808 1638.75 165.496C1638.75 186.185 1525.75 186.185 1525.75 206.869C1525.75 227.554 1638.75 227.558 1638.75 248.246C1638.75 268.935 1525.75 268.935 1525.75 289.623C1525.75 310.312 1638.75 310.312 1638.75 331" stroke="#CDB89A" stroke-miterlimit="10"/>
<path d="M283.414 0C283.414 20.6847 170.414 20.6847 170.414 41.3731C170.414 62.0616 283.414 62.0616 283.414 82.7463C283.414 103.431 170.414 103.435 170.414 124.123C170.414 144.812 283.414 144.808 283.414 165.496C283.414 186.185 170.414 186.185 170.414 206.869C170.414 227.554 283.414 227.558 283.414 248.246C283.414 268.935 170.414 268.935 170.414 289.623C170.414 310.312 283.414 310.312 283.414 331" stroke="#CDB89A" stroke-miterlimit="10"/>
<path d="M961.086 0C961.086 20.6847 848.086 20.6847 848.086 41.3731C848.086 62.0616 961.086 62.0616 961.086 82.7463C961.086 103.431 848.086 103.435 848.086 124.123C848.086 144.812 961.086 144.808 961.086 165.496C961.086 186.185 848.086 186.185 848.086 206.869C848.086 227.554 961.086 227.558 961.086 248.246C961.086 268.935 848.086 268.935 848.086 289.623C848.086 310.312 961.086 310.312 961.086 331" stroke="#CDB89A" stroke-miterlimit="10"/>
<path d="M1469.33 0C1469.33 20.6847 1356.33 20.6847 1356.33 41.3731C1356.33 62.0616 1469.33 62.0616 1469.33 82.7463C1469.33 103.431 1356.33 103.435 1356.33 124.123C1356.33 144.812 1469.33 144.808 1469.33 165.496C1469.33 186.185 1356.33 186.185 1356.33 206.869C1356.33 227.554 1469.33 227.558 1469.33 248.246C1469.33 268.935 1356.33 268.935 1356.33 289.623C1356.33 310.312 1469.33 310.312 1469.33 331" stroke="#CDB89A" stroke-miterlimit="10"/>
<path d="M622.25 0C622.25 20.6847 509.25 20.6847 509.25 41.3731C509.25 62.0616 622.25 62.0616 622.25 82.7463C622.25 103.431 509.25 103.435 509.25 124.123C509.25 144.812 622.25 144.808 622.25 165.496C622.25 186.185 509.25 186.185 509.25 206.869C509.25 227.554 622.25 227.558 622.25 248.246C622.25 268.935 509.25 268.935 509.25 289.623C509.25 310.312 622.25 310.312 622.25 331" stroke="#CDB89A" stroke-miterlimit="10"/>
<path d="M1299.91 0C1299.91 20.6847 1186.91 20.6847 1186.91 41.3731C1186.91 62.0616 1299.91 62.0616 1299.91 82.7463C1299.91 103.431 1186.91 103.435 1186.91 124.123C1186.91 144.812 1299.91 144.808 1299.91 165.496C1299.91 186.185 1186.91 186.185 1186.91 206.869C1186.91 227.554 1299.91 227.558 1299.91 248.246C1299.91 268.935 1186.91 268.935 1186.91 289.623C1186.91 310.312 1299.91 310.312 1299.91 331" stroke="#CDB89A" stroke-miterlimit="10"/>
<path d="M1808.16 0C1808.16 20.6847 1695.16 20.6847 1695.16 41.3731C1695.16 62.0616 1808.16 62.0616 1808.16 82.7463C1808.16 103.431 1695.16 103.435 1695.16 124.123C1695.16 144.812 1808.16 144.808 1808.16 165.496C1808.16 186.185 1695.16 186.185 1695.16 206.869C1695.16 227.554 1808.16 227.558 1808.16 248.246C1808.16 268.935 1695.16 268.935 1695.16 289.623C1695.16 310.312 1808.16 310.312 1808.16 331" stroke="#CDB89A" stroke-miterlimit="10"/>
<path d="M848.082 0C848.082 20.6847 735.082 20.6847 735.082 41.3731C735.082 62.0616 848.082 62.0616 848.082 82.7463C848.082 103.431 735.082 103.435 735.082 124.123C735.082 144.812 848.082 144.808 848.082 165.496C848.082 186.185 735.082 186.185 735.082 206.869C735.082 227.554 848.082 227.558 848.082 248.246C848.082 268.935 735.082 268.935 735.082 289.623C735.082 310.312 848.082 310.312 848.082 331" stroke="#CDB89A" stroke-miterlimit="10"/>
<path d="M509.25 0C509.25 20.6847 396.25 20.6847 396.25 41.3731C396.25 62.0616 509.25 62.0616 509.25 82.7463C509.25 103.431 396.25 103.435 396.25 124.123C396.25 144.812 509.25 144.808 509.25 165.496C509.25 186.185 396.25 186.185 396.25 206.869C396.25 227.554 509.25 227.558 509.25 248.246C509.25 268.935 396.25 268.935 396.25 289.623C396.25 310.312 509.25 310.312 509.25 331" stroke="#CDB89A" stroke-miterlimit="10"/>
<path d="M1186.92 0C1186.92 20.6847 1073.92 20.6847 1073.92 41.3731C1073.92 62.0616 1186.92 62.0616 1186.92 82.7463C1186.92 103.431 1073.92 103.435 1073.92 124.123C1073.92 144.812 1186.92 144.808 1186.92 165.496C1186.92 186.185 1073.92 186.185 1073.92 206.869C1073.92 227.554 1186.92 227.558 1186.92 248.246C1186.92 268.935 1073.92 268.935 1073.92 289.623C1073.92 310.312 1186.92 310.312 1186.92 331" stroke="#CDB89A" stroke-miterlimit="10"/>
<path d="M1695.16 0C1695.16 20.6847 1582.16 20.6847 1582.16 41.3731C1582.16 62.0616 1695.16 62.0616 1695.16 82.7463C1695.16 103.431 1582.16 103.435 1582.16 124.123C1582.16 144.812 1695.16 144.808 1695.16 165.496C1695.16 186.185 1582.16 186.185 1582.16 206.869C1582.16 227.554 1695.16 227.558 1695.16 248.246C1695.16 268.935 1582.16 268.935 1582.16 289.623C1582.16 310.312 1695.16 310.312 1695.16 331" stroke="#CDB89A" stroke-miterlimit="10"/>
<path d="M339.832 0C339.832 20.6847 226.832 20.6847 226.832 41.3731C226.832 62.0616 339.832 62.0616 339.832 82.7463C339.832 103.431 226.832 103.435 226.832 124.123C226.832 144.812 339.832 144.808 339.832 165.496C339.832 186.185 226.832 186.185 226.832 206.869C226.832 227.554 339.832 227.558 339.832 248.246C339.832 268.935 226.832 268.935 226.832 289.623C226.832 310.312 339.832 310.312 339.832 331" stroke="#CDB89A" stroke-miterlimit="10"/>
<path d="M1017.5 0C1017.5 20.6847 904.5 20.6847 904.5 41.3731C904.5 62.0616 1017.5 62.0616 1017.5 82.7463C1017.5 103.431 904.5 103.435 904.5 124.123C904.5 144.812 1017.5 144.808 1017.5 165.496C1017.5 186.185 904.5 186.185 904.5 206.869C904.5 227.554 1017.5 227.558 1017.5 248.246C1017.5 268.935 904.5 268.935 904.5 289.623C904.5 310.312 1017.5 310.312 1017.5 331" stroke="#CDB89A" stroke-miterlimit="10"/>
<path d="M1525.75 0C1525.75 20.6847 1412.75 20.6847 1412.75 41.3731C1412.75 62.0616 1525.75 62.0616 1525.75 82.7463C1525.75 103.431 1412.75 103.435 1412.75 124.123C1412.75 144.812 1525.75 144.808 1525.75 165.496C1525.75 186.185 1412.75 186.185 1412.75 206.869C1412.75 227.554 1525.75 227.558 1525.75 248.246C1525.75 268.935 1412.75 268.935 1412.75 289.623C1412.75 310.312 1525.75 310.312 1525.75 331" stroke="#CDB89A" stroke-miterlimit="10"/>
<path d="M678.664 0C678.664 20.6847 565.664 20.6847 565.664 41.3731C565.664 62.0616 678.664 62.0616 678.664 82.7463C678.664 103.431 565.664 103.435 565.664 124.123C565.664 144.812 678.664 144.808 678.664 165.496C678.664 186.185 565.664 186.185 565.664 206.869C565.664 227.554 678.664 227.558 678.664 248.246C678.664 268.935 565.664 268.935 565.664 289.623C565.664 310.312 678.664 310.312 678.664 331" stroke="#CDB89A" stroke-miterlimit="10"/>
<path d="M1356.34 0C1356.34 20.6847 1243.34 20.6847 1243.34 41.3731C1243.34 62.0616 1356.34 62.0616 1356.34 82.7463C1356.34 103.431 1243.34 103.435 1243.34 124.123C1243.34 144.812 1356.34 144.808 1356.34 165.496C1356.34 186.185 1243.34 186.185 1243.34 206.869C1243.34 227.554 1356.34 227.558 1356.34 248.246C1356.34 268.935 1243.34 268.935 1243.34 289.623C1243.34 310.312 1356.34 310.312 1356.34 331" stroke="#CDB89A" stroke-miterlimit="10"/>
<path d="M1864.59 0C1864.59 20.6847 1751.59 20.6847 1751.59 41.3731C1751.59 62.0616 1864.59 62.0616 1864.59 82.7463C1864.59 103.431 1751.59 103.435 1751.59 124.123C1751.59 144.812 1864.59 144.808 1864.59 165.496C1864.59 186.185 1751.59 186.185 1751.59 206.869C1751.59 227.554 1864.59 227.558 1864.59 248.246C1864.59 268.935 1751.59 268.935 1751.59 289.623C1751.59 310.312 1864.59 310.312 1864.59 331" stroke="#CDB89A" stroke-miterlimit="10"/>
<path d="M170.418 0C170.418 20.6847 57.418 20.6847 57.418 41.3731C57.418 62.0616 170.418 62.0616 170.418 82.7463C170.418 103.431 57.418 103.435 57.418 124.123C57.418 144.812 170.418 144.808 170.418 165.496C170.418 186.185 57.418 186.185 57.418 206.869C57.418 227.554 170.418 227.558 170.418 248.246C170.418 268.935 57.418 268.935 57.418 289.623C57.418 310.312 170.418 310.312 170.418 331" stroke="#CDB89A" stroke-miterlimit="10"/>
<path d="M848.082 0C848.082 20.6847 735.082 20.6847 735.082 41.3731C735.082 62.0616 848.082 62.0616 848.082 82.7463C848.082 103.431 735.082 103.435 735.082 124.123C735.082 144.812 848.082 144.808 848.082 165.496C848.082 186.185 735.082 186.185 735.082 206.869C735.082 227.554 848.082 227.558 848.082 248.246C848.082 268.935 735.082 268.935 735.082 289.623C735.082 310.312 848.082 310.312 848.082 331" stroke="#CDB89A" stroke-miterlimit="10"/>
<path d="M509.25 0C509.25 20.6847 396.25 20.6847 396.25 41.3731C396.25 62.0616 509.25 62.0616 509.25 82.7463C509.25 103.431 396.25 103.435 396.25 124.123C396.25 144.812 509.25 144.808 509.25 165.496C509.25 186.185 396.25 186.185 396.25 206.869C396.25 227.554 509.25 227.558 509.25 248.246C509.25 268.935 396.25 268.935 396.25 289.623C396.25 310.312 509.25 310.312 509.25 331" stroke="#CDB89A" stroke-miterlimit="10"/>
<path d="M1186.92 0C1186.92 20.6847 1073.92 20.6847 1073.92 41.3731C1073.92 62.0616 1186.92 62.0616 1186.92 82.7463C1186.92 103.431 1073.92 103.435 1073.92 124.123C1073.92 144.812 1186.92 144.808 1186.92 165.496C1186.92 186.185 1073.92 186.185 1073.92 206.869C1073.92 227.554 1186.92 227.558 1186.92 248.246C1186.92 268.935 1073.92 268.935 1073.92 289.623C1073.92 310.312 1186.92 310.312 1186.92 331" stroke="#CDB89A" stroke-miterlimit="10"/>
<path d="M1695.16 0C1695.16 20.6847 1582.16 20.6847 1582.16 41.3731C1582.16 62.0616 1695.16 62.0616 1695.16 82.7463C1695.16 103.431 1582.16 103.435 1582.16 124.123C1582.16 144.812 1695.16 144.808 1695.16 165.496C1695.16 186.185 1582.16 186.185 1582.16 206.869C1582.16 227.554 1695.16 227.558 1695.16 248.246C1695.16 268.935 1582.16 268.935 1582.16 289.623C1582.16 310.312 1695.16 310.312 1695.16 331" stroke="#CDB89A" stroke-miterlimit="10"/>
<path d="M339.832 0C339.832 20.6847 226.832 20.6847 226.832 41.3731C226.832 62.0616 339.832 62.0616 339.832 82.7463C339.832 103.431 226.832 103.435 226.832 124.123C226.832 144.812 339.832 144.808 339.832 165.496C339.832 186.185 226.832 186.185 226.832 206.869C226.832 227.554 339.832 227.558 339.832 248.246C339.832 268.935 226.832 268.935 226.832 289.623C226.832 310.312 339.832 310.312 339.832 331" stroke="#CDB89A" stroke-miterlimit="10"/>
<path d="M1017.5 0C1017.5 20.6847 904.5 20.6847 904.5 41.3731C904.5 62.0616 1017.5 62.0616 1017.5 82.7463C1017.5 103.431 904.5 103.435 904.5 124.123C904.5 144.812 1017.5 144.808 1017.5 165.496C1017.5 186.185 904.5 186.185 904.5 206.869C904.5 227.554 1017.5 227.558 1017.5 248.246C1017.5 268.935 904.5 268.935 904.5 289.623C904.5 310.312 1017.5 310.312 1017.5 331" stroke="#CDB89A" stroke-miterlimit="10"/>
<path d="M1525.75 0C1525.75 20.6847 1412.75 20.6847 1412.75 41.3731C1412.75 62.0616 1525.75 62.0616 1525.75 82.7463C1525.75 103.431 1412.75 103.435 1412.75 124.123C1412.75 144.812 1525.75 144.808 1525.75 165.496C1525.75 186.185 1412.75 186.185 1412.75 206.869C1412.75 227.554 1525.75 227.558 1525.75 248.246C1525.75 268.935 1412.75 268.935 1412.75 289.623C1412.75 310.312 1525.75 310.312 1525.75 331" stroke="#CDB89A" stroke-miterlimit="10"/>
<path d="M678.664 0C678.664 20.6847 565.664 20.6847 565.664 41.3731C565.664 62.0616 678.664 62.0616 678.664 82.7463C678.664 103.431 565.664 103.435 565.664 124.123C565.664 144.812 678.664 144.808 678.664 165.496C678.664 186.185 565.664 186.185 565.664 206.869C565.664 227.554 678.664 227.558 678.664 248.246C678.664 268.935 565.664 268.935 565.664 289.623C565.664 310.312 678.664 310.312 678.664 331" stroke="#CDB89A" stroke-miterlimit="10"/>
<path d="M1356.34 0C1356.34 20.6847 1243.34 20.6847 1243.34 41.3731C1243.34 62.0616 1356.34 62.0616 1356.34 82.7463C1356.34 103.431 1243.34 103.435 1243.34 124.123C1243.34 144.812 1356.34 144.808 1356.34 165.496C1356.34 186.185 1243.34 186.185 1243.34 206.869C1243.34 227.554 1356.34 227.558 1356.34 248.246C1356.34 268.935 1243.34 268.935 1243.34 289.623C1243.34 310.312 1356.34 310.312 1356.34 331" stroke="#CDB89A" stroke-miterlimit="10"/>
<path d="M1864.59 0C1864.59 20.6847 1751.59 20.6847 1751.59 41.3731C1751.59 62.0616 1864.59 62.0616 1864.59 82.7463C1864.59 103.431 1751.59 103.435 1751.59 124.123C1751.59 144.812 1864.59 144.808 1864.59 165.496C1864.59 186.185 1751.59 186.185 1751.59 206.869C1751.59 227.554 1864.59 227.558 1864.59 248.246C1864.59 268.935 1751.59 268.935 1751.59 289.623C1751.59 310.312 1864.59 310.312 1864.59 331" stroke="#CDB89A" stroke-miterlimit="10"/>
<path d="M226.832 0C226.832 20.6847 113.832 20.6847 113.832 41.3731C113.832 62.0616 226.832 62.0616 226.832 82.7463C226.832 103.431 113.832 103.435 113.832 124.123C113.832 144.812 226.832 144.808 226.832 165.496C226.832 186.185 113.832 186.185 113.832 206.869C113.832 227.554 226.832 227.558 226.832 248.246C226.832 268.935 113.832 268.935 113.832 289.623C113.832 310.312 226.832 310.312 226.832 331" stroke="#CDB89A" stroke-miterlimit="10"/>
<path d="M904.5 0C904.5 20.6847 791.5 20.6847 791.5 41.3731C791.5 62.0616 904.5 62.0616 904.5 82.7463C904.5 103.431 791.5 103.435 791.5 124.123C791.5 144.812 904.5 144.808 904.5 165.496C904.5 186.185 791.5 186.185 791.5 206.869C791.5 227.554 904.5 227.558 904.5 248.246C904.5 268.935 791.5 268.935 791.5 289.623C791.5 310.312 904.5 310.312 904.5 331" stroke="#CDB89A" stroke-miterlimit="10"/>
<path d="M565.664 0C565.664 20.6847 452.664 20.6847 452.664 41.3731C452.664 62.0616 565.664 62.0616 565.664 82.7463C565.664 103.431 452.664 103.435 452.664 124.123C452.664 144.812 565.664 144.808 565.664 165.496C565.664 186.185 452.664 186.185 452.664 206.869C452.664 227.554 565.664 227.558 565.664 248.246C565.664 268.935 452.664 268.935 452.664 289.623C452.664 310.312 565.664 310.312 565.664 331" stroke="#CDB89A" stroke-miterlimit="10"/>
<path d="M1243.33 0C1243.33 20.6847 1130.33 20.6847 1130.33 41.3731C1130.33 62.0616 1243.33 62.0616 1243.33 82.7463C1243.33 103.431 1130.33 103.435 1130.33 124.123C1130.33 144.812 1243.33 144.808 1243.33 165.496C1243.33 186.185 1130.33 186.185 1130.33 206.869C1130.33 227.554 1243.33 227.558 1243.33 248.246C1243.33 268.935 1130.33 268.935 1130.33 289.623C1130.33 310.312 1243.33 310.312 1243.33 331" stroke="#CDB89A" stroke-miterlimit="10"/>
<path d="M1751.59 0C1751.59 20.6847 1638.59 20.6847 1638.59 41.3731C1638.59 62.0616 1751.59 62.0616 1751.59 82.7463C1751.59 103.431 1638.59 103.435 1638.59 124.123C1638.59 144.812 1751.59 144.808 1751.59 165.496C1751.59 186.185 1638.59 186.185 1638.59 206.869C1638.59 227.554 1751.59 227.558 1751.59 248.246C1751.59 268.935 1638.59 268.935 1638.59 289.623C1638.59 310.312 1751.59 310.312 1751.59 331" stroke="#CDB89A" stroke-miterlimit="10"/>
<path d="M396.25 0C396.25 20.6847 283.25 20.6847 283.25 41.3731C283.25 62.0616 396.25 62.0616 396.25 82.7463C396.25 103.431 283.25 103.435 283.25 124.123C283.25 144.812 396.25 144.808 396.25 165.496C396.25 186.185 283.25 186.185 283.25 206.869C283.25 227.554 396.25 227.558 396.25 248.246C396.25 268.935 283.25 268.935 283.25 289.623C283.25 310.312 396.25 310.312 396.25 331" stroke="#CDB89A" stroke-miterlimit="10"/>
<path d="M1073.91 0C1073.91 20.6847 960.914 20.6847 960.914 41.3731C960.914 62.0616 1073.91 62.0616 1073.91 82.7463C1073.91 103.431 960.914 103.435 960.914 124.123C960.914 144.812 1073.91 144.808 1073.91 165.496C1073.91 186.185 960.914 186.185 960.914 206.869C960.914 227.554 1073.91 227.558 1073.91 248.246C1073.91 268.935 960.914 268.935 960.914 289.623C960.914 310.312 1073.91 310.312 1073.91 331" stroke="#CDB89A" stroke-miterlimit="10"/>
<path d="M1582.16 0C1582.16 20.6847 1469.16 20.6847 1469.16 41.3731C1469.16 62.0616 1582.16 62.0616 1582.16 82.7463C1582.16 103.431 1469.16 103.435 1469.16 124.123C1469.16 144.812 1582.16 144.808 1582.16 165.496C1582.16 186.185 1469.16 186.185 1469.16 206.869C1469.16 227.554 1582.16 227.558 1582.16 248.246C1582.16 268.935 1469.16 268.935 1469.16 289.623C1469.16 310.312 1582.16 310.312 1582.16 331" stroke="#CDB89A" stroke-miterlimit="10"/>
<path d="M735.082 0C735.082 20.6847 622.082 20.6847 622.082 41.3731C622.082 62.0616 735.082 62.0616 735.082 82.7463C735.082 103.431 622.082 103.435 622.082 124.123C622.082 144.812 735.082 144.808 735.082 165.496C735.082 186.185 622.082 186.185 622.082 206.869C622.082 227.554 735.082 227.558 735.082 248.246C735.082 268.935 622.082 268.935 622.082 289.623C622.082 310.312 735.082 310.312 735.082 331" stroke="#CDB89A" stroke-miterlimit="10"/>
<path d="M1412.75 0C1412.75 20.6847 1299.75 20.6847 1299.75 41.3731C1299.75 62.0616 1412.75 62.0616 1412.75 82.7463C1412.75 103.431 1299.75 103.435 1299.75 124.123C1299.75 144.812 1412.75 144.808 1412.75 165.496C1412.75 186.185 1299.75 186.185 1299.75 206.869C1299.75 227.554 1412.75 227.558 1412.75 248.246C1412.75 268.935 1299.75 268.935 1299.75 289.623C1299.75 310.312 1412.75 310.312 1412.75 331" stroke="#CDB89A" stroke-miterlimit="10"/>
<path d="M1921 0C1921 20.6847 1808 20.6847 1808 41.3731C1808 62.0616 1921 62.0616 1921 82.7463C1921 103.431 1808 103.435 1808 124.123C1808 144.812 1921 144.808 1921 165.496C1921 186.185 1808 186.185 1808 206.869C1808 227.554 1921 227.558 1921 248.246C1921 268.935 1808 268.935 1808 289.623C1808 310.312 1921 310.312 1921 331" stroke="#CDB89A" stroke-miterlimit="10"/>
<path d="M114 0C114 20.6847 1 20.6847 1 41.3731C1 62.0616 114 62.0616 114 82.7463C114 103.431 1 103.435 1 124.123C1 144.812 114 144.808 114 165.496C114 186.185 1 186.185 1 206.869C1 227.554 114 227.558 114 248.246C114 268.935 1 268.935 1 289.623C1 310.312 114 310.312 114 331" stroke="#CDB89A" stroke-miterlimit="10"/>
<path d="M170.418 0C170.418 20.6847 57.418 20.6847 57.418 41.3731C57.418 62.0616 170.418 62.0616 170.418 82.7463C170.418 103.431 57.418 103.435 57.418 124.123C57.418 144.812 170.418 144.808 170.418 165.496C170.418 186.185 57.418 186.185 57.418 206.869C57.418 227.554 170.418 227.558 170.418 248.246C170.418 268.935 57.418 268.935 57.418 289.623C57.418 310.312 170.418 310.312 170.418 331" stroke="#CDB89A" stroke-miterlimit="10"/>
</g>
</svg>